<svg width="78" height="85" viewBox="0 0 78 85" fill="none" xmlns="http://www.w3.org/2000/svg">
<path d="M33.44 6.76427C33.5318 7.9297 34.081 9.01147 34.9677 9.77332C35.8544 10.5352 37.0065 10.9152 38.1725 10.8304L60.6897 8.99951L1.80352 77.536C1.0387 78.4262 0.658812 79.5837 0.74744 80.7539C0.836069 81.9242 1.38595 83.0113 2.27611 83.7761C3.16626 84.5409 4.32378 84.9208 5.49402 84.8322C6.66427 84.7436 7.75138 84.1937 8.5162 83.3035L67.3736 14.8006L69.0844 37.3897C69.1261 37.9724 69.2828 38.541 69.5454 39.0628C69.808 39.5846 70.1713 40.0493 70.6144 40.43C71.0574 40.8107 71.5715 41.0999 72.1269 41.2809C72.6823 41.4619 73.2681 41.5312 73.8504 41.4847C75.0158 41.3929 76.0976 40.8437 76.8594 39.957C77.6213 39.0703 78.0013 37.9182 77.9165 36.7522L76.0975 12.3199C75.8296 8.81216 74.1804 5.55419 71.5121 3.2616C68.8438 0.969009 65.3746 -0.170718 61.8666 0.0927654L37.5061 2.03183C36.3407 2.12358 35.2589 2.67278 34.4971 3.55948C33.7352 4.44618 33.3552 5.59832 33.44 6.76427Z" fill="#212121"/>
</svg>
