<svg width="60" height="60" viewBox="0 0 60 60" fill="none" xmlns="http://www.w3.org/2000/svg">
<circle cx="30" cy="30" r="30" fill="#F1F1FF"/>
<path d="M39.8998 37.8991L37.9913 39.7868C36.5849 41.1664 34.7594 42.9415 32.5148 45.1122C31.8401 45.7645 30.9384 46.1291 30 46.1291C29.0616 46.1291 28.1599 45.7645 27.4852 45.1122L21.8721 39.6517C21.1657 38.9593 20.575 38.3751 20.1002 37.8991C18.1423 35.9412 16.809 33.4466 16.2689 30.7309C15.7288 28.0152 16.0061 25.2003 17.0658 22.6422C18.1254 20.0841 19.9199 17.8976 22.2221 16.3594C24.5244 14.8211 27.2311 14 30 14C32.7689 14 35.4756 14.8211 37.7779 16.3594C40.0801 17.8976 41.8746 20.0841 42.9342 22.6422C43.9939 25.2003 44.2712 28.0152 43.7311 30.7309C43.191 33.4466 41.8577 35.9412 39.8998 37.8991ZM34.0198 28.4415C34.0198 27.3754 33.5962 26.3529 32.8424 25.5991C32.0885 24.8452 31.0661 24.4217 30 24.4217C28.9339 24.4217 27.9115 24.8452 27.1576 25.5991C26.4038 26.3529 25.9802 27.3754 25.9802 28.4415C25.9802 29.5076 26.4038 30.53 27.1576 31.2839C27.9115 32.0377 28.9339 32.4612 30 32.4612C31.0661 32.4612 32.0885 32.0377 32.8424 31.2839C33.5962 30.53 34.0198 29.5076 34.0198 28.4415Z" fill="#0077B6"/>
</svg>
