<svg width="60" height="60" viewBox="0 0 60 60" fill="none" xmlns="http://www.w3.org/2000/svg">
<circle cx="30" cy="30" r="30" fill="#F1F1FF"/>
<g clip-path="url(#clip0_15_346)">
<path d="M37 42.8334H21.8333C18.6133 42.8334 16 40.2201 16 37.0001V24.1667C16 23.5251 16.525 23.0001 17.1667 23.0001C17.8083 23.0001 18.3333 23.5251 18.3333 24.1667V37.0001C18.3333 38.9251 19.9083 40.5001 21.8333 40.5001H37C37.6417 40.5001 38.1667 41.0251 38.1667 41.6667C38.1667 42.3084 37.6417 42.8334 37 42.8334ZM29.86 26.6401C31.225 28.0051 33.4417 28.0051 34.8067 26.6401L42.4133 19.0334C41.3517 17.8901 39.8467 17.1667 38.1667 17.1667H26.5C24.82 17.1667 23.315 17.8901 22.2533 19.0334L29.86 26.6401ZM36.4633 28.2851C35.3317 29.4167 33.8267 29.9884 32.3333 29.9884C30.84 29.9884 29.3467 29.4167 28.2033 28.2851L21.0167 21.0984C20.8067 21.6934 20.6667 22.3351 20.6667 23.0001V32.3334C20.6667 35.5534 23.28 38.1667 26.5 38.1667H38.1667C41.3867 38.1667 44 35.5534 44 32.3334V23.0001C44 22.3351 43.86 21.6934 43.65 21.0984L36.4517 28.2967L36.4633 28.2851Z" fill="#0077B6"/>
</g>
<defs>
<clipPath id="clip0_15_346">
<rect width="28" height="28" fill="white" transform="translate(16 16)"/>
</clipPath>
</defs>
</svg>
