<svg width="60" height="60" viewBox="0 0 60 60" fill="none" xmlns="http://www.w3.org/2000/svg">
<circle cx="30" cy="30" r="30" fill="#F1F1FF"/>
<path d="M20 18C20 16.9391 20.4214 15.9217 21.1716 15.1716C21.9217 14.4214 22.9391 14 24 14H36C37.0609 14 38.0783 14.4214 38.8284 15.1716C39.5786 15.9217 40 16.9391 40 18V42C40 43.0609 39.5786 44.0783 38.8284 44.8284C38.0783 45.5786 37.0609 46 36 46H24C22.9391 46 21.9217 45.5786 21.1716 44.8284C20.4214 44.0783 20 43.0609 20 42V18ZM32 40C32 39.4696 31.7893 38.9609 31.4142 38.5858C31.0391 38.2107 30.5304 38 30 38C29.4696 38 28.9609 38.2107 28.5858 38.5858C28.2107 38.9609 28 39.4696 28 40C28 40.5304 28.2107 41.0391 28.5858 41.4142C28.9609 41.7893 29.4696 42 30 42C30.5304 42 31.0391 41.7893 31.4142 41.4142C31.7893 41.0391 32 40.5304 32 40Z" fill="#0077B6"/>
</svg>
