<svg width="38" height="38" viewBox="0 0 38 38" fill="none" xmlns="http://www.w3.org/2000/svg">
<circle cx="19" cy="19" r="19" fill="#AF52DE"/>
<g clip-path="url(#clip0_422_4431)">
<path d="M26.5999 23.1168C26.5999 24.1644 25.7474 25.0168 24.6999 25.0168V25.6502C24.6999 26.0004 24.4162 26.2835 24.0666 26.2835C23.717 26.2835 23.4332 26.0004 23.4332 25.6502V25.0168H23.2635C22.5877 25.0168 21.9569 24.6533 21.6181 24.0675C21.4433 23.7641 21.5465 23.3771 21.8493 23.2023C22.1514 23.0263 22.5396 23.1308 22.7144 23.4329C22.8278 23.6292 23.038 23.7502 23.2635 23.7502H24.6999C25.0489 23.7502 25.3332 23.4664 25.3332 23.1168C25.3332 22.8768 25.1616 22.6748 24.9254 22.6349L22.9994 22.3144C22.1495 22.1725 21.5332 21.4442 21.5332 20.5835C21.5332 19.536 22.3857 18.6835 23.4332 18.6835V18.0502C23.4332 17.6999 23.717 17.4168 24.0666 17.4168C24.4162 17.4168 24.6999 17.6999 24.6999 18.0502V18.6835H24.8696C25.5454 18.6835 26.1762 19.047 26.515 19.6329C26.6898 19.9362 26.5866 20.3232 26.2839 20.498C25.9818 20.6741 25.5942 20.5702 25.4187 20.2675C25.3054 20.0711 25.0951 19.9502 24.8696 19.9502H23.4332C23.0843 19.9502 22.7999 20.2339 22.7999 20.5835C22.7999 20.8235 22.9715 21.0256 23.2078 21.0655L25.1337 21.3859C25.9837 21.5278 26.5999 22.2561 26.5999 23.1168ZM20.5218 24.7021C20.2678 24.2619 20.2001 23.7495 20.3305 23.26C20.4224 22.918 20.6022 22.6152 20.8524 22.3771C20.4819 21.873 20.2666 21.2517 20.2666 20.5835C20.2666 19.0546 21.3565 17.7753 22.7999 17.4808V15.5168C22.7999 13.7707 21.3793 12.3502 19.6332 12.3502H19.5249C19.2634 11.613 18.5591 11.0835 17.7332 11.0835H16.4666C15.6407 11.0835 14.9364 11.613 14.6749 12.3502H14.5666C12.8205 12.3502 11.3999 13.7707 11.3999 15.5168V23.1168C11.3999 24.8629 12.8205 26.2835 14.5666 26.2835H19.6332C20.3096 26.2835 20.9341 26.0663 21.449 25.7034C21.0766 25.4431 20.7561 25.1068 20.5218 24.7021ZM17.5603 20.0813L16.1803 21.4613C15.9213 21.7203 15.5812 21.8495 15.2411 21.8495C14.901 21.8495 14.5609 21.7203 14.3018 21.4613L13.4861 20.6449C13.2385 20.3973 13.2385 19.9964 13.4861 19.7494C13.7337 19.5018 14.134 19.5018 14.3816 19.7494L15.1974 20.5658C15.2183 20.5867 15.2639 20.5867 15.2854 20.5658L16.6654 19.1857C16.9131 18.9381 17.3133 18.9381 17.561 19.1857C17.8086 19.4334 17.808 19.8336 17.5603 20.0813ZM17.5603 16.2813L16.1803 17.6613C15.9213 17.9203 15.5812 18.0495 15.2411 18.0495C14.901 18.0495 14.5609 17.9203 14.3018 17.6613L13.4861 16.8449C13.2385 16.5973 13.2385 16.1964 13.4861 15.9494C13.7337 15.7018 14.134 15.7018 14.3816 15.9494L15.1974 16.7658C15.2183 16.7867 15.2639 16.7867 15.2854 16.7658L16.6654 15.3857C16.9131 15.1381 17.3133 15.1381 17.561 15.3857C17.8086 15.6334 17.808 16.0336 17.5603 16.2813Z" fill="white"/>
</g>
<defs>
<clipPath id="clip0_422_4431">
<rect width="15.2" height="15.2" fill="white" transform="translate(11.3999 11.0835)"/>
</clipPath>
</defs>
</svg>
