<svg width="18" height="19" viewBox="0 0 18 19" fill="none" xmlns="http://www.w3.org/2000/svg">
<path d="M17.3407 5.11325L13.3868 1.15925C12.9615 0.734 12.3967 0.5 11.796 0.5H6.204C5.60325 0.5 5.0385 0.734 4.61325 1.15925L0.65925 5.11325C0.234 5.5385 0 6.10325 0 6.704V12.296C0 12.8967 0.234 13.4615 0.65925 13.8868L4.61325 17.8407C5.0385 18.266 5.60325 18.5 6.204 18.5H11.796C12.3967 18.5 12.9615 18.266 13.3868 17.8407L17.3407 13.8868C17.766 13.4615 18 12.8967 18 12.296V6.704C18 6.10325 17.766 5.5385 17.3407 5.11325ZM9.20475 11.669C8.91075 11.963 8.51925 12.125 8.10375 12.125C7.68825 12.125 7.29675 11.963 7.00275 11.6683L4.29225 8.95775L5.35275 7.89725L8.064 10.6077C8.08275 10.6265 8.1255 10.6258 8.145 10.6077L12.6893 6.0635L13.7498 7.124L9.2055 11.6683L9.20475 11.669Z" fill="#003566"/>
</svg>
