<svg width="14" height="14" viewBox="0 0 14 14" fill="none" xmlns="http://www.w3.org/2000/svg">
<path d="M8.21501 6.65323L6.46478 5.2828C5.40647 4.45552 3.92752 4.45436 2.86922 5.2828L1.11898 6.65265C0.407804 7.20981 0 8.047 0 8.95012V11.3724C0 12.8199 1.17791 13.9978 2.62535 13.9978H6.70923C8.15667 13.9978 9.33457 12.8199 9.33457 11.3724V8.95012C9.33457 8.047 8.92677 7.21039 8.21559 6.65265L8.21501 6.65323ZM5.83353 10.4979C5.83353 10.82 5.57216 11.0813 5.25012 11.0813H4.08329C3.76125 11.0813 3.49988 10.82 3.49988 10.4979V9.33109C3.49988 9.00905 3.76125 8.74768 4.08329 8.74768H5.25012C5.57216 8.74768 5.83353 9.00905 5.83353 9.33109V10.4979ZM13.7702 12.9792C13.4336 13.6075 12.7814 13.9984 12.0684 13.9984H9.43842C10.0948 13.3164 10.5008 12.3917 10.5008 11.373V8.9507C10.5008 7.68704 9.92965 6.51496 8.93435 5.73494L7.18296 4.36334C6.59079 3.9007 5.9047 3.63175 5.20053 3.5384C5.23378 3.44097 5.2752 3.34588 5.33238 3.25661C5.34638 3.23444 7.74361 0.435821 7.74361 0.435821C8.32119 -0.153424 9.20798 -0.122503 9.72954 0.4049C9.72954 0.4049 12.1548 3.23503 12.1688 3.2572C12.4249 3.6545 12.4506 4.16265 12.2178 4.57337C12.027 4.91 11.6455 5.10078 11.6455 5.10078L13.2008 7.37316C13.4365 7.72204 13.4575 8.22786 13.2364 8.64966C13.0258 9.05047 12.5993 9.264 12.5993 9.264L13.695 11.0271C14.0719 11.6169 14.1022 12.3613 13.7708 12.9797L13.7702 12.9792Z" fill="#0077B6"/>
</svg>
