<svg width="24" height="25" viewBox="0 0 24 25" fill="none" xmlns="http://www.w3.org/2000/svg">
<path d="M8.70001 8.79443C9.52844 8.79443 10.2 9.46601 10.2 10.2944C10.2 11.1229 9.52844 11.7944 8.70001 11.7944C7.87158 11.7944 7.20001 11.1229 7.20001 10.2944C7.20001 9.46601 7.87158 8.79443 8.70001 8.79443Z" fill="#667185"/>
<path d="M16.8 10.2944C16.8 9.46601 16.1284 8.79443 15.3 8.79443C14.4716 8.79443 13.8 9.46601 13.8 10.2944C13.8 11.1229 14.4716 11.7944 15.3 11.7944C16.1284 11.7944 16.8 11.1229 16.8 10.2944Z" fill="#667185"/>
<path d="M10.7071 16.0873C10.3166 15.6968 9.68342 15.6968 9.29289 16.0873C8.90237 16.4779 8.90237 17.111 9.29289 17.5015C10.788 18.9966 13.212 18.9966 14.7071 17.5015C15.0976 17.111 15.0976 16.4779 14.7071 16.0873C14.3166 15.6968 13.6834 15.6968 13.2929 16.0873C12.5788 16.8014 11.4212 16.8014 10.7071 16.0873Z" fill="#667185"/>
<path fill-rule="evenodd" clip-rule="evenodd" d="M12 2.79443C6.47715 2.79443 2 7.27159 2 12.7944C2 18.3173 6.47715 22.7944 12 22.7944C17.5228 22.7944 22 18.3173 22 12.7944C22 7.27159 17.5228 2.79443 12 2.79443ZM4 12.7944C4 8.37616 7.58172 4.79443 12 4.79443C16.4183 4.79443 20 8.37616 20 12.7944C20 17.2127 16.4183 20.7944 12 20.7944C7.58172 20.7944 4 17.2127 4 12.7944Z" fill="#667185"/>
</svg>
