<svg width="25" height="24" viewBox="0 0 25 24" fill="none" xmlns="http://www.w3.org/2000/svg">
<path d="M4.43066 12V14.5442C4.43066 17.7892 4.43066 19.4117 5.31673 20.5107C5.49574 20.7327 5.69797 20.9349 5.91999 21.1139C7.01897 22 8.64148 22 11.8865 22C12.5921 22 12.9448 22 13.2679 21.886C13.3351 21.8623 13.4009 21.835 13.4652 21.8043C13.7743 21.6564 14.0237 21.407 14.5226 20.9081L19.2591 16.1716C19.8372 15.5935 20.1262 15.3045 20.2785 14.9369C20.4307 14.5694 20.4307 14.1606 20.4307 13.3431V10C20.4307 6.22876 20.4307 4.34315 19.2591 3.17157C18.0876 2 16.2019 2 12.4307 2M13.4307 21.5V21C13.4307 18.1716 13.4307 16.7574 14.3094 15.8787C15.1881 15 16.6023 15 19.4307 15H19.9307" stroke="#475367" stroke-width="1.5" stroke-linecap="round" stroke-linejoin="round"/>
<path d="M10.4307 5C9.84082 4.39316 8.27093 2 7.43066 2C6.59039 2 5.0205 4.39316 4.43066 5M7.43066 3V10" stroke="#475367" stroke-width="1.5" stroke-linecap="round" stroke-linejoin="round"/>
</svg>
