<svg width="48" height="48" viewBox="0 0 48 48" fill="none" xmlns="http://www.w3.org/2000/svg">
<circle cx="24" cy="24" r="24" fill="#ECF4F9"/>
<path d="M22.1344 22.5361L23.7454 21.0601C24.1859 20.6558 24.4955 20.129 24.6345 19.5474C24.7735 18.9658 24.7355 18.356 24.5254 17.7961L23.8384 15.9616C23.5818 15.2768 23.0736 14.7155 22.4176 14.3922C21.7615 14.0689 21.0069 14.0079 20.3074 14.2216C17.7334 15.0091 15.7549 17.4016 16.3639 20.2426C16.7644 22.1116 17.5309 24.4576 18.9829 26.9536C20.4379 29.4556 22.0999 31.3036 23.5249 32.6026C25.6759 34.5601 28.7509 34.0711 30.7294 32.2261C31.2595 31.7314 31.581 31.0534 31.6287 30.3299C31.6763 29.6065 31.4465 28.8921 30.9859 28.3321L29.7259 26.8021C29.3459 26.3394 28.8361 26.0011 28.2622 25.8305C27.6883 25.66 27.0764 25.6651 26.5054 25.8451L24.4234 26.5006C23.8854 25.946 23.4142 25.3303 23.0194 24.6661C22.6384 23.9945 22.3412 23.2786 22.1344 22.5346" fill="#0077B6"/>
</svg>
