<svg width="48" height="48" viewBox="0 0 48 48" fill="none" xmlns="http://www.w3.org/2000/svg">
<circle cx="24" cy="24" r="24" fill="#ECF4F9"/>
<path d="M29.25 15H18.75C17.4902 15 16.282 15.5004 15.3912 16.3912C14.5004 17.282 14 18.4902 14 19.75V28.75C14 29.3738 14.1229 29.9915 14.3616 30.5677C14.6003 31.144 14.9502 31.6677 15.3912 32.1088C16.282 32.9996 17.4902 33.5 18.75 33.5H29.25C30.509 33.4974 31.7156 32.9961 32.6058 32.1058C33.4961 31.2156 33.9974 30.009 34 28.75V19.75C33.9974 18.491 33.4961 17.2844 32.6058 16.3942C31.7156 15.5039 30.509 15.0026 29.25 15ZM25.6 23.32C25.108 23.6006 24.5514 23.7481 23.985 23.7481C23.4186 23.7481 22.862 23.6006 22.37 23.32L15.52 19.39C15.6086 18.5953 15.987 17.8611 16.5829 17.328C17.1788 16.7948 17.9504 16.5 18.75 16.5H29.25C30.049 16.5022 30.8194 16.7977 31.4148 17.3305C32.0103 17.8633 32.3893 18.5962 32.48 19.39L25.6 23.32Z" fill="#0077B6"/>
</svg>
