<svg width="48" height="48" viewBox="0 0 48 48" fill="none" xmlns="http://www.w3.org/2000/svg">
<circle cx="24" cy="24" r="24" fill="#ECF4F9"/>
<path d="M25.734 33.816C28.3485 31.515 33 26.814 33 22.5C33 20.1131 32.0518 17.8239 30.364 16.136C28.6761 14.4482 26.3869 13.5 24 13.5C21.6131 13.5 19.3239 14.4482 17.636 16.136C15.9482 17.8239 15 20.1131 15 22.5C15 26.814 19.65 31.515 22.266 33.816C22.7432 34.2419 23.3604 34.4773 24 34.4773C24.6396 34.4773 25.2568 34.2419 25.734 33.816ZM21 22.5C21 21.7044 21.3161 20.9413 21.8787 20.3787C22.4413 19.8161 23.2044 19.5 24 19.5C24.7956 19.5 25.5587 19.8161 26.1213 20.3787C26.6839 20.9413 27 21.7044 27 22.5C27 23.2956 26.6839 24.0587 26.1213 24.6213C25.5587 25.1839 24.7956 25.5 24 25.5C23.2044 25.5 22.4413 25.1839 21.8787 24.6213C21.3161 24.0587 21 23.2956 21 22.5Z" fill="#0077B6"/>
</svg>
