<svg width="24" height="25" viewBox="0 0 24 25" fill="none" xmlns="http://www.w3.org/2000/svg">
<path d="M5.18288 9.59271C5.66396 9.75307 6.04147 10.1306 6.20183 10.6117C6.36503 11.1013 7.05757 11.1013 7.22078 10.6117C7.38114 10.1306 7.75864 9.75307 8.23972 9.59271C8.72933 9.4295 8.72933 8.73696 8.23972 8.57376C7.75864 8.4134 7.38114 8.0359 7.22078 7.55481C7.05757 7.0652 6.36503 7.0652 6.20183 7.55481C6.04147 8.0359 5.66396 8.4134 5.18288 8.57376C4.69327 8.73696 4.69327 9.4295 5.18288 9.59271Z" fill="#667185"/>
<path fill-rule="evenodd" clip-rule="evenodd" d="M5 2.79443C2.79086 2.79443 1 4.5853 1 6.79443V18.7944C1 21.0036 2.79086 22.7944 5 22.7944H19C21.2091 22.7944 23 21.0036 23 18.7944V6.79443C23 4.58529 21.2091 2.79443 19 2.79443H5ZM21 14.5926V6.79443C21 5.68986 20.1046 4.79443 19 4.79443H5C3.89543 4.79443 3 5.68986 3 6.79443V18.7944C3 19.899 3.89543 20.7944 5 20.7944H5.14267C5.05007 20.5108 5 20.2079 5 19.8933C5 19.2985 5.18287 18.718 5.52383 18.2305L8.33552 14.2107C9.22169 12.9438 10.9256 12.5578 12.2712 13.3192L12.5869 13.4979L13.0596 12.8226C13.9945 11.487 15.8249 11.1425 17.1814 12.0469L21 14.5926ZM11.4347 15.1439L11.2863 15.0599C10.8378 14.8061 10.2698 14.9347 9.9744 15.3571L7.1627 19.3768C7.0568 19.5283 7 19.7086 7 19.8933C7 20.391 7.40344 20.7944 7.90111 20.7944H9.01216C8.70586 19.9365 8.78063 18.9355 9.38362 18.074L11.4347 15.1439ZM11.8413 20.7944H19C20.1046 20.7944 21 19.899 21 18.7944V17.5315C21 17.1971 20.8329 16.8849 20.5547 16.6994L16.072 13.711C15.6198 13.4095 15.0097 13.5243 14.6981 13.9695L11.0221 19.221C10.5581 19.8837 11.0323 20.7944 11.8413 20.7944Z" fill="#667185"/>
</svg>
