<svg width="14" height="18" viewBox="0 0 14 18" fill="none" xmlns="http://www.w3.org/2000/svg">
<path d="M7 0.583984C5.14423 0.586026 3.36505 1.32408 2.05275 2.63624C0.740463 3.9484 0.00222758 5.72752 0 7.58328C0 9.38571 1.39565 12.2065 4.14838 15.967C4.47609 16.416 4.90516 16.7812 5.40068 17.033C5.8962 17.2848 6.44418 17.416 7 17.416C7.55582 17.416 8.10379 17.2848 8.59932 17.033C9.09484 16.7812 9.52391 16.416 9.85162 15.967C12.6043 12.2065 14 9.38571 14 7.58328C13.9978 5.72752 13.2595 3.9484 11.9472 2.63624C10.635 1.32408 8.85577 0.586026 7 0.583984ZM7 10.3732C6.44516 10.3732 5.90278 10.2087 5.44144 9.9004C4.98011 9.59215 4.62054 9.15401 4.40821 8.64141C4.19588 8.1288 4.14033 7.56474 4.24857 7.02056C4.35682 6.47638 4.624 5.97652 5.01633 5.58419C5.40866 5.19185 5.90853 4.92467 6.45271 4.81643C6.99689 4.70818 7.56095 4.76374 8.07355 4.97607C8.58616 5.1884 9.02429 5.54796 9.33255 6.0093C9.6408 6.47063 9.80533 7.01301 9.80533 7.56785C9.80533 8.31187 9.50977 9.02542 8.98367 9.55152C8.45757 10.0776 7.74402 10.3732 7 10.3732Z" fill="#0077B6"/>
</svg>
