<svg width="38" height="38" viewBox="0 0 38 38" fill="none" xmlns="http://www.w3.org/2000/svg">
<circle cx="19" cy="19" r="19" fill="#FF9500"/>
<path d="M22.7999 18.9999C20.701 18.9999 18.9999 20.701 18.9999 22.7999C18.9999 24.8988 20.701 26.5999 22.7999 26.5999C24.8988 26.5999 26.5999 24.8988 26.5999 22.7999C26.5999 20.701 24.8988 18.9999 22.7999 18.9999ZM25.1325 22.6175L23.4206 24.273C23.1343 24.5555 22.7543 24.698 22.3737 24.698C21.993 24.698 21.6118 24.5555 21.3204 24.2711L20.4629 23.4275C20.2127 23.1824 20.2096 22.7815 20.454 22.532C20.6985 22.2818 21.0994 22.278 21.3496 22.5231L22.2071 23.3661C22.2983 23.456 22.4478 23.4541 22.5377 23.3648L24.2559 21.703C24.5074 21.4617 24.9089 21.4686 25.1515 21.7213C25.3934 21.9734 25.3852 22.3743 25.1331 22.6169L25.1325 22.6175ZM17.7332 22.7999C17.7332 20.0063 20.0063 17.7332 22.7999 17.7332C23.2382 17.7332 23.6606 17.7947 24.0666 17.8998V15.8332C24.0666 14.5381 23.2831 13.4253 22.1666 12.9351V12.0332C22.1666 11.6836 21.8835 11.3999 21.5332 11.3999C21.183 11.3999 20.8999 11.6836 20.8999 12.0332V12.6666H19.6332V12.0332C19.6332 11.6836 19.3501 11.3999 18.9999 11.3999C18.6497 11.3999 18.3666 11.6836 18.3666 12.0332V12.6666H17.0999V12.0332C17.0999 11.6836 16.8168 11.3999 16.4666 11.3999C16.1163 11.3999 15.8332 11.6836 15.8332 12.0332V12.6666H14.5666V12.0332C14.5666 11.6836 14.2835 11.3999 13.9332 11.3999C13.583 11.3999 13.2999 11.6836 13.2999 12.0332V12.9351C12.1833 13.4253 11.3999 14.5381 11.3999 15.8332V23.4332C11.3999 25.1793 12.8205 26.5999 14.5666 26.5999H19.4597C18.4039 25.6708 17.7332 24.3136 17.7332 22.7999ZM14.5666 15.8332H20.8999C21.2501 15.8332 21.5332 16.117 21.5332 16.4666C21.5332 16.8162 21.2501 17.0999 20.8999 17.0999H14.5666C14.2163 17.0999 13.9332 16.8162 13.9332 16.4666C13.9332 16.117 14.2163 15.8332 14.5666 15.8332ZM16.7832 19.6332H14.5666C14.2163 19.6332 13.9332 19.3495 13.9332 18.9999C13.9332 18.6503 14.2163 18.3666 14.5666 18.3666H16.7832C17.1335 18.3666 17.4166 18.6503 17.4166 18.9999C17.4166 19.3495 17.1335 19.6332 16.7832 19.6332Z" fill="white"/>
</svg>
