<svg width="28" height="28" viewBox="0 0 28 28" fill="none" xmlns="http://www.w3.org/2000/svg">
<path d="M27.4226 15.0062C27.4969 14.9708 27.5594 14.9148 27.6027 14.8448C27.646 14.7748 27.6682 14.6939 27.6668 14.6116C27.6654 14.5293 27.6403 14.4492 27.5946 14.3808C27.5489 14.3124 27.4844 14.2585 27.409 14.2257L9.20327 6.33759C9.00141 6.25065 8.78024 6.21832 8.56193 6.24384C8.34363 6.26936 8.13588 6.35184 7.95952 6.483C7.78316 6.61416 7.64439 6.78939 7.55713 6.99112C7.46987 7.19284 7.43718 7.41396 7.46236 7.6323L7.99512 12.2293C8.00037 12.2756 8.02054 12.3189 8.0526 12.3527C8.08465 12.3865 8.12683 12.409 8.17277 12.4167L21.9781 14.6774C22.0323 14.6846 22.0816 14.7124 22.116 14.7549C22.1503 14.7974 22.167 14.8515 22.1627 14.906C22.1583 14.9605 22.1333 15.0113 22.0927 15.0478C22.052 15.0844 21.9989 15.104 21.9443 15.1026L8.57472 15.1823C8.5446 15.1825 8.51486 15.1891 8.48743 15.2015C8.46001 15.214 8.43552 15.2321 8.41555 15.2546C8.39559 15.2772 8.3806 15.3037 8.37157 15.3325C8.36253 15.3612 8.35965 15.3915 8.36311 15.4214L9.11201 21.9077C9.13512 22.1048 9.20495 22.2936 9.31568 22.4583C9.42641 22.6231 9.57486 22.759 9.74868 22.8548C9.9225 22.9506 10.1167 23.0036 10.3151 23.0093C10.5135 23.015 10.7104 22.9733 10.8894 22.8876L27.4226 15.0062Z" fill="#0077B6"/>
<path d="M6.91104 14.9185C6.9066 14.8804 6.89202 14.8441 6.86882 14.8134C6.84562 14.7828 6.81465 14.7589 6.77911 14.7443C6.74357 14.7297 6.70476 14.7248 6.66672 14.7303C6.62867 14.7357 6.59277 14.7512 6.56275 14.7752C5.85776 15.3441 4.16939 16.7067 4.16939 16.7067C4.03739 16.8133 3.93996 16.9566 3.8894 17.1185C3.83884 17.2804 3.83743 17.4537 3.88535 17.6165C3.93326 17.7792 4.02835 17.9241 4.1586 18.0328C4.28884 18.1415 4.44839 18.2092 4.61707 18.2272L7.05087 18.4877C7.08281 18.491 7.11507 18.487 7.1453 18.4762C7.17553 18.4654 7.20295 18.4479 7.22556 18.4251C7.24817 18.4024 7.2654 18.3748 7.27598 18.3445C7.28657 18.3142 7.29024 18.2819 7.28673 18.25L6.91104 14.9185Z" fill="#0077B6"/>
</svg>
