<svg width="38" height="38" viewBox="0 0 38 38" fill="none" xmlns="http://www.w3.org/2000/svg">
<circle cx="19" cy="19" r="19" fill="#FF2D55"/>
<path d="M18.9999 22.4835V21.5335C18.9999 20.6601 19.7099 19.9502 20.5832 19.9502H20.8999V19.6335C20.8999 19.1097 21.3261 18.6835 21.8499 18.6835H23.7499C24.2737 18.6835 24.6999 19.1097 24.6999 19.6335V19.9502H25.0166C25.8899 19.9502 26.5999 20.6601 26.5999 21.5335V22.4835H18.9999ZM23.4332 23.7502V24.3835H22.1666V23.7502H18.9999V26.2835H26.5999V23.7502H23.4332ZM17.7332 26.2835H11.3999V12.9835C11.3999 11.936 12.2524 11.0835 13.2999 11.0835H19.6332C20.6808 11.0835 21.5332 11.936 21.5332 12.9835V17.4409C20.7466 17.5543 20.0918 18.0799 19.7985 18.7937C18.6072 19.1351 17.7332 20.2339 17.7332 21.5335V26.2835ZM17.0999 15.5168H18.9999V14.2502H17.0999V15.5168ZM17.0999 18.0502H18.9999V16.7835H17.0999V18.0502ZM15.8332 21.8502H13.9332V23.1168H15.8332V21.8502ZM15.8332 19.3168H13.9332V20.5835H15.8332V19.3168ZM15.8332 16.7835H13.9332V18.0502H15.8332V16.7835ZM15.8332 14.2502H13.9332V15.5168H15.8332V14.2502Z" fill="white"/>
</svg>
