<svg width="38" height="38" viewBox="0 0 38 38" fill="none" xmlns="http://www.w3.org/2000/svg">
<circle cx="19" cy="19" r="19" fill="#0077B6"/>
<path d="M25.3858 15.2321L25.3332 15.191V12.9851C25.3332 12.6355 25.0495 12.3517 24.6999 12.3517C24.3503 12.3517 24.0666 12.6355 24.0666 12.9851V14.1985L20.9525 11.7589C19.803 10.8583 18.1962 10.8583 17.0467 11.7589L12.614 15.2321C11.8426 15.8363 11.3999 16.7452 11.3999 17.7249V23.1184C11.3999 24.8645 12.8205 26.2851 14.5666 26.2851H23.4332C25.1793 26.2851 26.5999 24.8645 26.5999 23.1184V17.7249C26.5999 16.7452 26.1572 15.8363 25.3858 15.2321ZM15.8332 18.3684C15.8332 17.844 16.2588 17.4184 16.7832 17.4184C17.3076 17.4184 17.7332 17.844 17.7332 18.3684C17.7332 18.8928 17.3076 19.3184 16.7832 19.3184C16.2588 19.3184 15.8332 18.8928 15.8332 18.3684ZM17.7326 23.1184C17.6262 23.1184 17.5179 23.0918 17.4191 23.0348C17.1157 22.8613 17.01 22.4743 17.1835 22.1709L19.7168 17.7376C19.8904 17.4342 20.2773 17.3291 20.5807 17.502C20.8841 17.6755 20.9898 18.0625 20.8163 18.3659L18.283 22.7992C18.1658 23.0038 17.9524 23.1184 17.7326 23.1184ZM21.2166 23.1184C20.6922 23.1184 20.2666 22.6928 20.2666 22.1684C20.2666 21.644 20.6922 21.2184 21.2166 21.2184C21.741 21.2184 22.1666 21.644 22.1666 22.1684C22.1666 22.6928 21.741 23.1184 21.2166 23.1184Z" fill="white"/>
</svg>
