<svg width="18" height="18" viewBox="0 0 18 18" fill="none" xmlns="http://www.w3.org/2000/svg">
<path d="M16.5623 4.91288L11.3123 0.799875C9.951 -0.266625 8.04825 -0.266625 6.687 0.799875L1.43775 4.91288C0.52425 5.62763 0 6.70388 0 7.86488V14.2399C0 16.3076 1.68225 17.9899 3.75 17.9899H14.25C16.3177 17.9899 18 16.3076 18 14.2399V7.86488C18 6.70388 17.4757 5.62838 16.5623 4.91288ZM16.5 14.2399C16.5 15.4804 15.4905 16.4899 14.25 16.4899H3.75C2.5095 16.4899 1.5 15.4804 1.5 14.2399V7.86488C1.5 7.16813 1.81425 6.52313 2.3625 6.09413L7.6125 1.98113C8.02125 1.66088 8.51025 1.50113 9 1.50113C9.48975 1.50113 9.9795 1.66088 10.3875 1.98113L15.6375 6.09413C16.1858 6.52313 16.5 7.16888 16.5 7.86488V14.2399ZM8.25 10.4899V6.73988C8.25 6.32513 8.586 5.98988 9 5.98988C9.414 5.98988 9.75 6.32513 9.75 6.73988V10.4899C9.75 10.9046 9.414 11.2399 9 11.2399C8.586 11.2399 8.25 10.9046 8.25 10.4899ZM12.5782 7.78688C13.9253 9.56888 13.755 12.0986 12.1823 13.6714C11.3325 14.5219 10.2022 14.9899 9 14.9899C7.79775 14.9899 6.66825 14.5219 5.81775 13.6714C4.245 12.0986 4.07475 9.56888 5.42175 7.78688C5.6715 7.45688 6.141 7.39013 6.4725 7.64138C6.8025 7.89113 6.8685 8.36137 6.61875 8.69213C5.72025 9.87938 5.83275 11.5646 6.879 12.6109C8.013 13.7449 9.9885 13.7449 11.1217 12.6109C12.168 11.5646 12.2797 9.87938 11.382 8.69213C11.1322 8.36137 11.1975 7.89113 11.5282 7.64138C11.859 7.39013 12.3278 7.45688 12.5782 7.78688Z" fill="#FF3B30"/>
</svg>
